<svg xmlns="http://www.w3.org/2000/svg" viewBox="0 0 256 218"><defs><style>.a{fill:#fff;}.b{fill:#39b54a;}</style></defs><path class="a" d="M0,122.3c19.4,0,22.2-10.7,22.2-20.2,0-7.7-1.1-15.4-2.2-23S17.8,64,17.8,56.4c0-25.2,16.4-35.8,39.6-35.8h5.8v15H58.3c-16.2,0-21.6,8.8-21.6,23.5a118,118,0,0,0,1.9,19.4,127.6,127.6,0,0,1,1.9,20.8c.3,17.5-7.4,26.3-19.7,29.6v.5c12.3,3,20,12.3,19.7,29.8A124.6,124.6,0,0,1,38.6,180a121.6,121.6,0,0,0-1.9,19.7c0,15.3,6.2,23.8,21.6,23.8h4.9v15H57.4c-22.7,0-39.6-9.8-39.6-37.4,0-7.4,1.1-15.1,2.2-22.5s2.2-14.7,2.2-22.1S19.4,136.2,0,136.2Z" transform="translate(0 -20.6)"/><path class="a" d="M256,136.2c-19.4,0-22.2,11.8-22.2,20.3s1.1,14.8,2.2,22.1,2.2,15.1,2.2,22.5c0,27.6-17.2,37.4-39.6,37.4h-5.8v-15h4.7c15.3-.3,21.9-8.5,21.9-23.8,0-6.6-1.1-12.9-2-19.7a123.9,123.9,0,0,1-2.2-20.8c0-17.5,7.7-26.8,19.7-29.8v-.5c-12-3.3-19.7-12.1-19.7-29.6,0-7.4,1.1-13.9,2.2-20.8s2-13.1,2-19.4c0-14.7-5.8-23.2-21.7-23.5h-4.9v-15h5.5c23.2,0,39.9,10.6,39.9,35.8,0,7.6-1.1,15-2.2,22.7s-2.2,15.3-2.2,23c0,9.5,2.8,20.2,22.2,20.2Z" transform="translate(0 -20.6)"/><circle class="b" cx="125.9" cy="107.1" r="69.9"/><path class="a" d="M86.7,132.8l12.8-8.3c6.2,9.6,10.6,19.4,14.5,29h.5c8.6-28.5,21.9-53.8,37.1-69.5L164,94.7c-15,14.1-29.7,36.4-39.5,71.6l-18.8,2.2A141.1,141.1,0,0,0,86.7,132.8Z" transform="translate(0 -20.6)"/></svg>