<?xml version="1.0" encoding="utf-8"?>
<!-- Generator: Adobe Illustrator 24.1.2, SVG Export Plug-In . SVG Version: 6.00 Build 0)  -->
<svg version="1.2" baseProfile="tiny" id="Layer_1" xmlns="http://www.w3.org/2000/svg" xmlns:xlink="http://www.w3.org/1999/xlink"
	 x="0px" y="0px" viewBox="0 0 16 16" overflow="visible" xml:space="preserve">
<path fill="#E0E0E0" d="M9,1l0.6,2.3l0.7,0.3l2-1.2l1.4,1.4l-1.2,2l0.3,0.7L15,7v2H9.8C10.3,8,9.9,6.8,9,6.3S6.8,6.1,6.3,7.1
	C5.9,7.7,5.9,8.4,6.3,9H1V7l2.3-0.6l0.3-0.7l-1.2-2l1.4-1.4l2,1.2l0.7-0.3L7,1H9z"/>
<path fill="#E0E0E0" d="M3.6,10.2C3.6,10,4,9.9,4.7,9.9c0.2,0,0.4,0,0.6,0C5.5,10,5.6,10,5.6,10l-1.8,3.6v2.1c0,0.1-0.2,0.2-0.5,0.2
	c-0.2,0-0.3,0-0.5,0s-0.3,0-0.5,0c-0.3,0-0.5-0.1-0.5-0.2v-2.1L0.1,10c0,0,0.1-0.1,0.4-0.1c0.3,0,0.5,0,0.7,0c0.7,0,1.1,0.1,1.2,0.3
	L2.9,12L3.6,10.2z"/>
<path fill="#E0E0E0" d="M11.3,16c-0.5,0-0.8-0.1-0.8-0.2l-0.2-3.5l-1,3.5c0,0.1-0.2,0.1-0.6,0.1c-0.4,0-0.6,0-0.6-0.1l-1.1-3.6
	L7,15.8c0,0.1-0.1,0.1-0.3,0.2s-0.4,0-0.5,0s-0.3,0-0.4,0c-0.3,0-0.4-0.1-0.4-0.2l0.2-5.6c0-0.1,0.3-0.2,1-0.2c0.2,0,0.5,0,0.8,0
	c0.3,0,0.5,0.1,0.5,0.2l1,2.7l0.8-2.7c0.1-0.2,0.4-0.2,1.2-0.2c0.2,0,0.5,0,0.8,0c0.3,0,0.4,0.1,0.4,0.2l0.2,5.7
	c0,0.1-0.1,0.1-0.3,0.1C11.7,16,11.5,16,11.3,16z"/>
<path fill="#E0E0E0" d="M12.7,15.5v-5.4c0-0.1,0.3-0.2,0.9-0.2c0.6,0,0.9,0.1,0.9,0.2v4.3h1.3c0.1,0,0.2,0.1,0.2,0.4
	c0,0.1,0,0.3,0,0.4s0,0.3,0,0.4c0,0.3-0.1,0.4-0.2,0.4h-2.6c-0.1,0-0.2-0.1-0.3-0.2S12.7,15.6,12.7,15.5z"/>
</svg>
